<svg width="64" height="64" viewBox="0 0 64 64" fill="none" xmlns="http://www.w3.org/2000/svg">
<path fill-rule="evenodd" clip-rule="evenodd" d="M9.5 40.0424C8.67157 40.0424 8 40.714 8 41.5424C8 42.3708 8.67157 43.0424 9.5 43.0424H38.5C39.3284 43.0424 40 42.3708 40 41.5424C40 40.714 39.3284 40.0424 38.5 40.0424H9.5ZM6 41.5424C6 39.6094 7.567 38.0424 9.5 38.0424H38.5C40.433 38.0424 42 39.6094 42 41.5424C42 43.4754 40.433 45.0424 38.5 45.0424H9.5C7.567 45.0424 6 43.4754 6 41.5424Z" fill="black"/>
<path fill-rule="evenodd" clip-rule="evenodd" d="M35.9631 21.8861C30.9204 18.6771 23.3744 19.7181 17.5812 23.8561C14.7608 25.8707 13.3623 28.0946 12.7166 30.5307C12.0584 33.0145 12.1628 35.7864 12.4945 38.9377C12.5523 39.4869 12.1539 39.9791 11.6047 40.0369C11.0554 40.0947 10.5633 39.6963 10.5055 39.1471C10.1705 35.965 10.025 32.8798 10.7834 30.0183C11.5544 27.1091 13.2393 24.4997 16.4188 22.2286C22.6256 17.7951 31.0796 16.4077 37.0369 20.1987C39.4816 21.7545 44.2502 25.8182 48.2711 29.626C48.8704 30.1935 49.3138 30.7666 49.5463 31.32C49.765 31.8403 49.8956 32.6352 49.3194 33.2409C48.7919 33.7955 48.0282 33.7917 47.4896 33.6873C46.8948 33.572 46.2278 33.2783 45.5282 32.8333C43.8534 31.7679 42.3016 30.9141 40.9882 30.4126C39.618 29.8894 38.7485 29.8452 38.2802 30.0407C37.966 30.1719 37.5374 30.5523 37.5135 31.9733C37.4896 33.3973 37.8973 35.5719 38.9487 38.7262C39.1233 39.2501 38.8402 39.8164 38.3162 39.9911C37.7923 40.1657 37.226 39.8826 37.0513 39.3586C35.9785 36.1401 35.4841 33.7072 35.5138 31.9396C35.5436 30.1688 36.1247 28.7734 37.5096 28.1951C38.7405 27.6811 40.2598 27.9937 41.7016 28.5442C43.2003 29.1164 44.8839 30.0531 46.6016 31.1457C46.879 31.3222 47.1271 31.4539 47.3422 31.5483C47.2234 31.406 47.076 31.2487 46.8959 31.0782C42.8792 27.2744 38.2312 23.3294 35.9631 21.8861Z" fill="black"/>
<path fill-rule="evenodd" clip-rule="evenodd" d="M53.003 37.8412C53.5716 37.414 54.0594 35.9175 52.8003 34.2413C51.5412 32.5651 49.968 32.6167 49.3994 33.0438C48.8308 33.471 48.343 34.9675 49.6021 36.6437C50.8611 38.3199 52.4343 38.2683 53.003 37.8412ZM54.2041 39.4403C55.9705 38.1135 56.0579 35.248 54.3994 33.0401C52.7409 30.8322 49.9645 30.1179 48.1982 31.4447C46.4319 32.7715 46.3445 35.637 48.003 37.8449C49.6615 40.0528 52.4378 40.7671 54.2041 39.4403Z" fill="black"/>
<path fill-rule="evenodd" clip-rule="evenodd" d="M18.4487 28.2262C18.6233 28.7501 18.3402 29.3164 17.8162 29.4911C17.2007 29.6963 16.6976 30.4744 16.4623 31.9385C16.242 33.3099 16.3322 34.875 16.4884 35.8903C16.5723 36.4362 16.1979 36.9468 15.6521 37.0308C15.1062 37.1148 14.5956 36.7403 14.5116 36.1945C14.3345 35.0432 14.2247 33.2583 14.4877 31.6213C14.7358 30.077 15.3993 28.1885 17.1838 27.5937C17.7077 27.4191 18.274 27.7022 18.4487 28.2262Z" fill="black"/>
</svg>
